# Blender 4.2.2 LTS
# www.blender.org
mtllib Worker.mtl
o Person
v 0.852998 -1.093835 1.006153
v 0.854953 0.990086 0.973426
v 0.646339 -1.441976 -1.000000
v 0.854953 0.990086 -0.982693
v 0.000000 -1.696149 -1.224745
v 0.000000 1.209900 -1.202507
v 1.047099 0.012027 -1.202507
v 0.791600 -1.695744 0.000000
v 1.047099 1.209900 -0.004634
v 1.047099 0.012027 1.193239
v 0.000000 -1.686715 1.256247
v 0.000000 1.224745 1.224745
v 0.000000 1.732051 0.000000
v 0.000000 -1.863742 0.373815
v 0.000000 -0.012075 1.732842
v 1.480822 0.012027 -0.004634
v 0.000000 0.012027 -1.698683
v 0.000000 -2.597039 -1.222413
v 0.791600 -2.597039 0.002331
v 0.646339 -2.597039 -0.997669
v 0.000000 -2.597039 0.150078
v 0.666482 -1.966941 0.001155
v 0.544180 -1.838857 -0.998845
v 0.000000 -2.017826 -1.223590
v 0.000000 -2.102415 0.148901
v 0.000000 -3.213741 -1.211549
v 1.383209 -3.188563 0.184875
v 1.365862 -3.234687 -0.761901
v 0.000000 -3.213741 0.498135
v 0.000000 -4.650246 -1.367574
v 1.254369 -4.650246 0.573155
v 1.024189 -4.650246 -1.011443
v 0.000000 -4.650246 0.721365
v 0.000000 -6.398625 -1.054278
v 0.965837 -6.402398 0.397553
v 0.736197 -6.398639 -0.798410
v 0.026062 -6.701394 1.081320
v 0.063393 -7.579962 -1.054278
v 0.901526 -7.579962 0.340541
v 0.736093 -7.579962 -0.798324
v 0.000177 -7.582841 0.453376
v 0.000000 -8.048808 -1.036332
v 1.156096 -8.048808 0.393781
v 0.949575 -8.048808 -0.773901
v 0.000000 -8.048808 0.502995
v 0.000000 -3.857857 0.617699
v 1.314983 -3.886661 -0.785237
v 0.000000 -3.860334 -1.286216
v 1.340796 -3.832995 0.280315
v 3.517964 -3.317446 0.003588
v 3.505803 -3.349781 -0.660147
v 3.470134 -3.806846 -0.676507
v 3.488230 -3.769224 0.070496
v 5.062768 -3.607083 -0.071779
v 5.050609 -3.617655 -0.661753
v 5.014945 -3.767089 -0.676295
v 5.046000 -3.754788 -0.012306
v 5.028221 -3.758064 -0.189112
v 5.059753 -3.609705 -0.218079
v 5.896584 -3.655977 -0.231275
v 5.887440 -3.663927 -0.674949
v 5.851777 -3.813361 -0.689491
v 5.865052 -3.804336 -0.202308
v 5.558961 -3.607083 -0.003247
v 5.529233 -3.754788 0.033193
v 5.524415 -3.758064 -0.075140
v 5.555946 -3.609705 -0.092889
v 1.121282 -10.811416 0.201295
v 0.936358 -10.811416 -0.605117
v 0.113540 -10.811416 -0.786353
v 0.113540 -10.811416 0.276719
v 0.921730 -13.581009 0.045433
v 0.803888 -13.581009 -0.468447
v 0.279552 -13.581009 -0.583939
v 0.279552 -13.581009 0.093497
v 0.921730 -13.870589 0.045433
v 0.803888 -13.870589 -0.468447
v 0.279552 -13.870589 -0.583939
v 0.279552 -13.870589 0.093497
v 1.010067 -13.581009 1.041795
v 0.367890 -13.581009 1.089858
v 1.010067 -13.870589 1.041795
v 0.367890 -13.870589 1.089858
v -0.852998 -1.093835 1.006153
v -0.854953 0.990086 0.973426
v -0.646339 -1.441976 -1.000000
v -0.854953 0.990086 -0.982693
v -1.047099 0.012027 -1.202507
v -0.791600 -1.695744 0.000000
v -1.047099 1.209900 -0.004634
v -1.047099 0.012027 1.193239
v -1.480822 0.012027 -0.004634
v -0.791600 -2.597039 0.002331
v -0.646339 -2.597039 -0.997669
v -0.666482 -1.966941 0.001155
v -0.544180 -1.838857 -0.998845
v -1.383209 -3.188563 0.184875
v -1.365862 -3.234687 -0.761901
v -1.254369 -4.650246 0.573156
v -1.024189 -4.650246 -1.011443
v -1.018431 -6.408229 0.406332
v -0.838060 -6.412818 -0.884184
v -0.063393 -7.579962 -1.054278
v -0.901526 -7.579962 0.340541
v -0.736093 -7.579962 -0.798324
v -1.156096 -8.048808 0.393781
v -0.949575 -8.048808 -0.773901
v -1.314983 -3.886661 -0.785237
v -1.340796 -3.832995 0.280315
v -3.517964 -3.317446 0.003588
v -3.505803 -3.349781 -0.660147
v -3.470134 -3.806846 -0.676507
v -3.488230 -3.769224 0.070496
v -5.062768 -3.607083 -0.071779
v -5.050609 -3.617655 -0.661753
v -5.014945 -3.767089 -0.676295
v -5.046000 -3.754788 -0.012306
v -5.028221 -3.758064 -0.189112
v -5.059753 -3.609705 -0.218079
v -5.896584 -3.655977 -0.231275
v -5.887440 -3.663927 -0.674949
v -5.851777 -3.813361 -0.689491
v -5.865052 -3.804336 -0.202308
v -5.558961 -3.607083 -0.003247
v -5.529233 -3.754788 0.033193
v -5.524415 -3.758064 -0.075140
v -5.555946 -3.609705 -0.092889
v -1.121282 -10.811416 0.201295
v -0.936358 -10.811416 -0.605117
v -0.113540 -10.811416 -0.786353
v -0.113540 -10.811416 0.276719
v -0.921730 -13.581009 0.045433
v -0.803888 -13.581009 -0.468447
v -0.279552 -13.581009 -0.583939
v -0.279552 -13.581009 0.093497
v -0.921730 -13.870589 0.045433
v -0.803888 -13.870589 -0.468447
v -0.279552 -13.870589 -0.583939
v -0.279552 -13.870589 0.093497
v -1.010067 -13.581009 1.041795
v -0.367890 -13.581009 1.089858
v -1.010067 -13.870589 1.041795
v -0.367890 -13.870589 1.089858
v 0.869180 -4.659954 0.783774
v 0.422604 -4.653502 0.770467
v 0.767327 -6.529880 0.840560
v 0.465339 -6.611537 1.005432
v -0.007001 -5.961329 1.085963
v -0.000053 -5.311791 0.821733
v 1.162760 -5.240153 0.518964
v 1.011547 -5.815633 0.419579
v 0.624857 -7.556881 0.491201
v 0.305349 -7.573016 0.493354
v 0.946223 -6.798027 0.399283
v 0.877616 -7.187519 0.324661
v 0.035468 -7.031013 0.968828
v -0.011346 -7.338970 0.778478
v -0.869180 -4.659954 0.783774
v -0.422604 -4.653502 0.770467
v -0.783139 -6.514939 0.748087
v -0.423180 -6.598801 0.924809
v -1.162760 -5.240153 0.518965
v -1.045247 -5.818255 0.460300
v -0.624894 -7.556914 0.491300
v -0.304486 -7.570422 0.486314
v -0.978379 -6.806852 0.389342
v -0.886737 -7.191984 0.339443
v -0.725245 -6.891138 0.701297
v -0.388318 -6.966276 0.852607
v -0.672172 -7.233275 0.598008
v -0.344249 -7.291141 0.725093
v -0.823512 -5.281176 0.760051
v -0.412783 -5.295052 0.837291
v -0.801626 -5.889181 0.777155
v -0.423934 -5.932198 0.966849
v 0.766070 -6.916965 0.811987
v 0.694814 -7.242644 0.656858
v 0.469467 -6.958686 0.954894
v 0.356465 -7.317526 0.806682
v 0.825235 -5.277062 0.761662
v 0.805933 -5.887724 0.750695
v 0.414534 -5.293219 0.824268
v 0.431099 -5.927009 0.959515
vn 0.3659 0.3199 -0.8739
vn 0.9111 0.2915 0.2915
vn 0.4947 -0.8089 0.3176
vn 0.3871 0.8650 0.3193
vn 0.3753 0.8669 -0.3280
vn 0.3498 0.0251 -0.9365
vn 0.9797 0.1602 -0.1208
vn 0.4376 -0.2375 0.8672
vn 0.3938 0.3176 0.8626
vn 0.9219 -0.3049 0.2390
vn 0.9030 -0.3294 -0.2759
vn 0.9111 0.2915 -0.2915
vn 0.4105 -0.2402 -0.8796
vn 0.1964 0.0239 0.9802
vn 0.3823 -0.4484 0.8079
vn 0.9302 -0.3171 -0.1850
vn 0.3703 -0.0556 -0.9272
vn 0.3427 0.1203 -0.9317
vn 0.3177 -0.0042 -0.9482
vn 0.6946 0.7154 -0.0750
vn 0.1781 0.4675 0.8659
vn 0.9680 -0.2347 -0.0888
vn 0.1722 0.3185 0.9322
vn 0.9875 -0.0237 -0.1556
vn 0.3414 0.0091 -0.9399
vn 0.3238 -0.1668 -0.9313
vn 0.9748 -0.1634 -0.1520
vn 0.2194 0.0386 0.9749
vn -0.0260 -0.7866 0.6169
vn -0.9992 -0.0411 -0.0000
vn 0.3044 0.0057 -0.9525
vn 0.8902 0.4324 -0.1435
vn 0.1087 0.0162 0.9939
vn 0.2269 0.1530 0.9618
vn 0.0492 0.0319 -0.9983
vn 0.3346 0.0579 -0.9406
vn 0.0033 0.0505 -0.9987
vn 0.0345 -0.9982 0.0494
vn 0.0560 0.9972 -0.0496
vn 0.0922 0.1399 0.9859
vn 0.0549 0.9983 -0.0190
vn 0.0676 0.2008 0.9773
vn 0.1766 0.9836 -0.0371
vn 0.0184 -0.9992 0.0348
vn 0.2296 -0.1988 -0.9528
vn 0.9751 -0.2210 -0.0195
vn -0.0549 -0.9983 0.0200
vn -0.0102 0.0993 -0.9950
vn 0.0258 0.1863 0.9822
vn 0.9775 -0.2082 -0.0325
vn -0.0038 -0.9997 0.0233
vn -0.1095 0.3225 0.9402
vn 0.0044 0.9997 -0.0223
vn 0.2147 -0.0584 -0.9749
vn 0.2423 -0.0689 -0.9678
vn 0.9809 -0.0077 -0.1945
vn 0.0848 -0.0741 0.9936
vn -1.0000 -0.0000 -0.0000
vn -0.9982 -0.0598 -0.0000
vn 0.9731 -0.0576 -0.2231
vn 0.0745 -0.0614 0.9953
vn -0.0000 -1.0000 -0.0000
vn 0.9747 -0.0000 -0.2235
vn -0.9961 -0.0000 0.0883
vn 0.2151 -0.0000 -0.9766
vn 0.0746 -0.0000 0.9972
vn -0.0000 1.0000 -0.0000
vn 0.9961 -0.0000 -0.0883
vn -0.3659 0.3199 -0.8739
vn -0.9111 0.2915 0.2915
vn -0.4947 -0.8089 0.3176
vn -0.3871 0.8650 0.3193
vn -0.3753 0.8669 -0.3280
vn -0.3498 0.0251 -0.9365
vn -0.9797 0.1602 -0.1208
vn -0.4376 -0.2375 0.8672
vn -0.3938 0.3176 0.8626
vn -0.9219 -0.3049 0.2390
vn -0.9030 -0.3294 -0.2759
vn -0.9111 0.2915 -0.2915
vn -0.4105 -0.2402 -0.8796
vn -0.1964 0.0239 0.9802
vn -0.3823 -0.4484 0.8079
vn -0.9302 -0.3171 -0.1850
vn -0.3703 -0.0556 -0.9272
vn -0.3427 0.1203 -0.9317
vn -0.3177 -0.0042 -0.9482
vn -0.6946 0.7154 -0.0750
vn -0.1781 0.4675 0.8659
vn -0.9680 -0.2347 -0.0888
vn -0.1722 0.3185 0.9322
vn -0.9875 -0.0945 -0.1265
vn -0.2709 -0.0396 -0.9618
vn -0.2685 -0.1339 -0.9539
vn -0.9850 -0.1179 -0.1257
vn -0.3084 -0.0390 0.9505
vn -0.0910 -0.7342 0.6729
vn 0.9992 -0.0411 -0.0000
vn -0.3044 0.0057 -0.9525
vn -0.8902 0.4324 -0.1435
vn -0.1082 0.0206 0.9939
vn -0.2269 0.1530 0.9618
vn -0.0492 0.0319 -0.9983
vn -0.3346 0.0579 -0.9406
vn -0.0033 0.0505 -0.9987
vn -0.0345 -0.9982 0.0494
vn -0.0560 0.9972 -0.0496
vn -0.0922 0.1399 0.9859
vn -0.0549 0.9983 -0.0190
vn -0.0676 0.2008 0.9773
vn -0.1766 0.9836 -0.0371
vn -0.0184 -0.9992 0.0348
vn -0.2296 -0.1988 -0.9528
vn -0.9751 -0.2210 -0.0195
vn 0.0549 -0.9983 0.0200
vn 0.0102 0.0993 -0.9950
vn -0.0258 0.1863 0.9822
vn -0.9775 -0.2082 -0.0325
vn 0.0038 -0.9997 0.0233
vn 0.1095 0.3225 0.9402
vn -0.0044 0.9997 -0.0223
vn -0.2147 -0.0584 -0.9749
vn -0.2423 -0.0689 -0.9678
vn -0.9809 -0.0077 -0.1945
vn -0.0848 -0.0741 0.9936
vn 1.0000 -0.0000 -0.0000
vn 0.9982 -0.0598 -0.0000
vn -0.9731 -0.0576 -0.2231
vn -0.0745 -0.0614 0.9953
vn -0.9747 -0.0000 -0.2235
vn 0.9961 -0.0000 0.0883
vn -0.2151 -0.0000 -0.9766
vn -0.0746 -0.0000 0.9972
vn -0.9961 -0.0000 -0.0883
vn -0.3331 -0.2612 0.9060
vn -0.2580 -0.4328 0.8638
vn -0.8125 -0.1491 0.5635
vn -0.4539 -0.1957 0.8693
vn -0.7724 -0.2744 0.5728
vn -0.4205 -0.3508 0.8367
vn -0.6368 -0.1416 0.7579
vn -0.2131 -0.5087 0.8341
vn 0.0786 0.1274 0.9887
vn -0.1025 0.2924 0.9508
vn -0.5314 -0.1142 0.8394
vn -0.0741 0.0308 0.9968
vn -0.6982 -0.1069 0.7079
vn -0.3118 0.1085 0.9439
vn -0.8157 -0.0696 0.5743
vn -0.4519 -0.0557 0.8904
vn 0.7176 -0.1888 0.6703
vn 0.2551 -0.6534 0.7127
vn 0.9178 -0.0380 0.3952
vn 0.8853 -0.2899 0.3636
vn 0.4703 -0.0927 0.8776
vn 0.4400 -0.4602 0.7711
vn 0.1416 -0.2292 0.9630
vn 0.0380 -0.4596 0.8873
vn 0.8897 -0.0359 0.4552
vn 0.4693 0.0884 0.8786
vn 0.5332 -0.1129 0.8384
vn 0.7317 -0.1667 0.6609
vn 0.0571 0.0228 0.9981
vn 0.3193 0.0935 0.9430
vn -0.0633 0.1178 0.9910
vn 0.1194 0.2959 0.9477
vt 0.500000 0.375000
vt 0.625000 0.375000
vt 0.625000 0.500000
vt 0.500000 0.500000
vt 0.500000 0.625000
vt 0.625000 0.625000
vt 0.625000 0.750000
vt 0.500000 0.750000
vt 0.250000 0.625000
vt 0.375000 0.625000
vt 0.375000 0.750000
vt 0.250000 0.750000
vt 0.750000 0.625000
vt 0.750000 0.750000
vt 0.750000 0.500000
vt 0.375000 0.375000
vt 0.375000 0.500000
vt 0.500000 0.875000
vt 0.375000 0.875000
vt 0.625000 0.875000
vt 0.291667 0.625000
vt 0.333333 0.625000
vt 0.250000 0.500000
vt 0.375000 0.594003
vt 0.375000 0.591715
s 0
f 17/1/1 6/2/1 4/3/1 7/4/1
f 16/5/2 9/6/2 2/7/2 10/8/2
f 14/9/3 8/10/3 1/11/3 11/12/3
f 9/6/4 13/13/4 12/14/4 2/7/4
f 4/3/5 6/15/5 13/13/5 9/6/5
f 24/16/6 23/17/6 20/17/6 18/16/6
f 23/17/7 22/10/7 19/10/7 20/17/7
f 1/11/8 10/8/8 15/18/8 11/19/8
f 10/8/9 2/7/9 12/20/9 15/18/9
f 8/10/10 16/5/10 10/8/10 1/11/10
f 3/17/11 7/4/11 16/5/11 8/10/11
f 7/4/12 4/3/12 9/6/12 16/5/12
f 5/16/13 17/1/13 7/4/13 3/17/13
f 22/10/14 25/9/14 21/9/14 19/10/14
f 8/10/15 14/9/15 25/9/15 22/10/15
f 3/17/16 8/10/16 22/10/16 23/17/16
f 5/16/17 3/17/17 23/17/17 24/16/17
f 48/16/18 47/17/18 32/17/18 30/16/18
f 18/16/19 20/17/19 28/17/19 26/16/19
f 20/17/20 19/10/20 27/10/20 28/17/20
f 19/10/21 21/9/21 29/9/21 27/10/21
f 47/17/22 49/10/22 31/10/22 32/17/22
f 49/10/23 46/9/23 33/9/23 145/21/23 144/22/23 31/10/23
f 36/17/24 35/10/24 154/10/24 155/10/24 39/10/24 40/17/24
f 34/16/25 36/17/25 40/17/25 38/16/25
f 30/16/26 32/17/26 36/17/26 34/16/26
f 32/17/27 31/10/27 150/10/27 151/10/27 35/10/27 36/17/27
f 183/21/28 148/9/28 37/9/28 147/21/28
f 179/21/29 157/9/29 41/9/29 153/21/29
f 45/9/30 42/23/30 70/23/30 71/9/30
f 38/16/31 40/17/31 44/17/31 42/16/31
f 40/17/32 39/10/32 43/10/32 44/17/32
f 39/10/33 152/22/33 153/21/33 41/9/33 45/9/33 43/10/33
f 27/10/34 29/9/34 46/9/34 49/10/34
f 47/17/35 28/17/35 51/17/35 52/17/35
f 26/16/36 28/17/36 47/17/36 48/16/36
f 52/17/37 51/17/37 55/17/37 56/17/37
f 49/10/38 47/17/38 52/17/38 53/10/38
f 28/17/39 27/10/39 50/10/39 51/17/39
f 27/10/40 49/10/40 53/10/40 50/10/40
f 55/17/41 59/24/41 60/24/41 61/17/41
f 50/10/42 53/10/42 57/10/42 54/10/42
f 51/17/43 50/10/43 54/10/43 59/24/43 55/17/43
f 53/10/44 52/17/44 56/17/44 58/25/44 57/10/44
f 58/25/45 59/24/45 67/24/45 66/25/45
f 61/17/46 60/24/46 63/25/46 62/17/46
f 58/25/47 56/17/47 62/17/47 63/25/47
f 56/17/48 55/17/48 61/17/48 62/17/48
f 59/24/49 58/25/49 63/25/49 60/24/49
f 66/25/50 67/24/50 64/10/50 65/10/50
f 57/10/51 58/25/51 66/25/51 65/10/51
f 54/10/52 57/10/52 65/10/52 64/10/52
f 59/24/53 54/10/53 64/10/53 67/24/53
f 70/16/54 69/17/54 73/17/54 74/16/54
f 42/16/55 44/17/55 69/17/55 70/16/55
f 44/17/56 43/10/56 68/10/56 69/17/56
f 43/10/57 45/9/57 71/9/57 68/10/57
f 75/9/58 74/23/58 78/23/58 79/9/58
f 71/9/59 70/23/59 74/23/59 75/9/59
f 69/17/60 68/10/60 72/10/60 73/17/60
f 68/10/61 71/9/61 75/9/61 72/10/61
f 78/23/62 77/17/62 76/10/62 79/9/62
f 73/17/63 72/10/63 76/10/63 77/17/63
f 75/9/64 79/9/64 83/9/64 81/9/64
f 74/16/65 73/17/65 77/17/65 78/16/65
f 80/10/66 81/9/66 83/9/66 82/10/66
f 79/9/62 76/10/62 82/10/62 83/9/62
f 72/10/67 75/9/67 81/9/67 80/10/67
f 76/10/68 72/10/68 80/10/68 82/10/68
f 17/1/69 88/4/69 87/3/69 6/2/69
f 92/5/70 91/8/70 85/7/70 90/6/70
f 14/9/71 11/12/71 84/11/71 89/10/71
f 90/6/72 85/7/72 12/14/72 13/13/72
f 87/3/73 90/6/73 13/13/73 6/15/73
f 24/16/74 18/16/74 94/17/74 96/17/74
f 96/17/75 94/17/75 93/10/75 95/10/75
f 84/11/76 11/19/76 15/18/76 91/8/76
f 91/8/77 15/18/77 12/20/77 85/7/77
f 89/10/78 84/11/78 91/8/78 92/5/78
f 86/17/79 89/10/79 92/5/79 88/4/79
f 88/4/80 92/5/80 90/6/80 87/3/80
f 5/16/81 86/17/81 88/4/81 17/1/81
f 95/10/82 93/10/82 21/9/82 25/9/82
f 89/10/83 95/10/83 25/9/83 14/9/83
f 86/17/84 96/17/84 95/10/84 89/10/84
f 5/16/85 24/16/85 96/17/85 86/17/85
f 48/16/86 30/16/86 100/17/86 108/17/86
f 18/16/87 26/16/87 98/17/87 94/17/87
f 94/17/88 98/17/88 97/10/88 93/10/88
f 93/10/89 97/10/89 29/9/89 21/9/89
f 108/17/90 100/17/90 99/10/90 109/10/90
f 109/10/91 99/10/91 158/22/91 159/21/91 33/9/91 46/9/91
f 102/17/92 105/17/92 104/10/92 167/10/92 166/10/92 101/10/92
f 34/16/93 103/16/93 105/17/93 102/17/93
f 30/16/94 34/16/94 102/17/94 100/17/94
f 100/17/95 102/17/95 101/10/95 163/10/95 162/10/95 99/10/95
f 175/21/96 161/21/96 37/9/96 148/9/96
f 171/21/97 165/21/97 41/9/97 157/9/97
f 45/9/98 131/9/98 130/23/98 42/23/98
f 103/16/99 42/16/99 107/17/99 105/17/99
f 105/17/100 107/17/100 106/10/100 104/10/100
f 104/10/101 106/10/101 45/9/101 41/9/101 165/21/101 164/22/101
f 97/10/102 109/10/102 46/9/102 29/9/102
f 108/17/103 112/17/103 111/17/103 98/17/103
f 26/16/104 48/16/104 108/17/104 98/17/104
f 112/17/105 116/17/105 115/17/105 111/17/105
f 109/10/106 113/10/106 112/17/106 108/17/106
f 98/17/107 111/17/107 110/10/107 97/10/107
f 97/10/108 110/10/108 113/10/108 109/10/108
f 115/17/109 121/17/109 120/24/109 119/24/109
f 110/10/110 114/10/110 117/10/110 113/10/110
f 111/17/111 115/17/111 119/24/111 114/10/111 110/10/111
f 113/10/112 117/10/112 118/25/112 116/17/112 112/17/112
f 118/25/113 126/25/113 127/24/113 119/24/113
f 121/17/114 122/17/114 123/25/114 120/24/114
f 118/25/115 123/25/115 122/17/115 116/17/115
f 116/17/116 122/17/116 121/17/116 115/17/116
f 119/24/117 120/24/117 123/25/117 118/25/117
f 126/25/118 125/10/118 124/10/118 127/24/118
f 117/10/119 125/10/119 126/25/119 118/25/119
f 114/10/120 124/10/120 125/10/120 117/10/120
f 119/24/121 127/24/121 124/10/121 114/10/121
f 130/16/122 134/16/122 133/17/122 129/17/122
f 42/16/123 130/16/123 129/17/123 107/17/123
f 107/17/124 129/17/124 128/10/124 106/10/124
f 106/10/125 128/10/125 131/9/125 45/9/125
f 135/9/126 139/9/126 138/23/126 134/23/126
f 131/9/127 135/9/127 134/23/127 130/23/127
f 129/17/128 133/17/128 132/10/128 128/10/128
f 128/10/129 132/10/129 135/9/129 131/9/129
f 138/23/62 139/9/62 136/10/62 137/17/62
f 133/17/130 137/17/130 136/10/130 132/10/130
f 135/9/131 141/9/131 143/9/131 139/9/131
f 134/16/132 138/16/132 137/17/132 133/17/132
f 140/10/133 142/10/133 143/9/133 141/9/133
f 139/9/62 143/9/62 142/10/62 136/10/62
f 132/10/67 140/10/67 141/9/67 135/9/67
f 136/10/134 142/10/134 140/10/134 132/10/134
f 161/21/135 169/21/135 156/9/135 37/9/135
f 169/21/136 171/21/136 157/9/136 156/9/136
f 101/10/137 166/10/137 168/22/137 160/22/137
f 160/22/138 168/22/138 169/21/138 161/21/138
f 166/10/139 167/10/139 170/22/139 168/22/139
f 168/22/140 170/22/140 171/21/140 169/21/140
f 167/10/141 104/10/141 164/22/141 170/22/141
f 170/22/142 164/22/142 165/21/142 171/21/142
f 159/21/143 173/21/143 149/9/143 33/9/143
f 173/21/144 175/21/144 148/9/144 149/9/144
f 99/10/145 162/10/145 172/22/145 158/22/145
f 158/22/146 172/22/146 173/21/146 159/21/146
f 162/10/147 163/10/147 174/22/147 172/22/147
f 172/22/148 174/22/148 175/21/148 173/21/148
f 163/10/149 101/10/149 160/22/149 174/22/149
f 174/22/150 160/22/150 161/21/150 175/21/150
f 155/10/151 177/22/151 152/22/151 39/10/151
f 177/22/152 179/21/152 153/21/152 152/22/152
f 35/10/153 146/22/153 176/22/153 154/10/153
f 154/10/154 176/22/154 177/22/154 155/10/154
f 146/22/155 147/21/155 178/21/155 176/22/155
f 176/22/156 178/21/156 179/21/156 177/22/156
f 147/21/157 37/9/157 156/9/157 178/21/157
f 178/21/158 156/9/158 157/9/158 179/21/158
f 151/10/159 181/22/159 146/22/159 35/10/159
f 181/22/160 183/21/160 147/21/160 146/22/160
f 31/10/161 144/22/161 180/22/161 150/10/161
f 150/10/162 180/22/162 181/22/162 151/10/162
f 144/22/163 145/21/163 182/21/163 180/22/163
f 180/22/164 182/21/164 183/21/164 181/22/164
f 145/21/165 33/9/165 149/9/165 182/21/165
f 182/21/166 149/9/166 148/9/166 183/21/166
